<svg id="レイヤー_1" data-name="レイヤー 1" xmlns="http://www.w3.org/2000/svg" viewBox="0 0 460.65 366.64"><defs><style>.cls-1{fill:#1e2633;}</style></defs><path class="cls-1" d="M402.29,283.43V420.57A18.42,18.42,0,0,1,384,438.86H274.29V329.14H201.14V438.86H91.43a18.42,18.42,0,0,1-18.29-18.29V283.43c0-.57.29-1.14.29-1.72L237.71,146.29,402,281.71A3.62,3.62,0,0,1,402.29,283.43ZM466,263.71l-17.71,21.15a9.56,9.56,0,0,1-6,3.14h-.86a9,9,0,0,1-6-2L237.72,121.14,40,286a9.72,9.72,0,0,1-6.86,2,9.56,9.56,0,0,1-6-3.14L9.43,263.71a9.36,9.36,0,0,1,1.14-12.85L216,79.71c12-10,31.43-10,43.43,0L329.14,138V82.28a9,9,0,0,1,9.15-9.14h54.85a9,9,0,0,1,9.15,9.14V198.86l62.57,52A9.36,9.36,0,0,1,466,263.71Z" transform="translate(-7.39 -72.21)"/></svg>